<svg width="260" height="260" viewBox="0 0 260 260" fill="none" xmlns="http://www.w3.org/2000/svg">
<defs>
  <linearGradient id="gold" x1="38" y1="26" x2="222" y2="232" gradientUnits="userSpaceOnUse"><stop stop-color="#FFF2B8"/><stop offset="0.22" stop-color="#F6C44A"/><stop offset="0.55" stop-color="#B97912"/><stop offset="0.82" stop-color="#FFDD78"/><stop offset="1" stop-color="#8D540B"/></linearGradient>
  <linearGradient id="purple" x1="54" y1="54" x2="206" y2="206"><stop stop-color="#B56CFF"/><stop offset="1" stop-color="#4C1D95"/></linearGradient>
</defs>
<path d="M130 11l24 13 27-4 17 21 27 5 7 26 20 18-5 27 9 25-17 22-1 27-24 13-12 25-27 3-21 17-25-9-25 9-21-17-27-3-12-25-24-13-1-27-17-22 9-25-5-27 20-18 7-26 27-5 17-21 27 4 24-13Z" fill="url(#gold)"/>
<circle cx="130" cy="130" r="93" fill="#27114D" stroke="#F7CF63" stroke-width="9"/>
<circle cx="130" cy="130" r="70" fill="url(#purple)" stroke="#F8D166" stroke-width="5"/>
<text x="130" y="73" text-anchor="middle" font-family="Inter, Arial" font-size="17" font-weight="900" fill="#FFE8A0">100% DINHEIRO DE VOLTA</text>
<text x="130" y="141" text-anchor="middle" font-family="Inter, Arial" font-size="74" font-weight="900" fill="#fff">7</text>
<text x="130" y="177" text-anchor="middle" font-family="Inter, Arial" font-size="36" font-weight="900" fill="#fff">DIAS</text>
<text x="130" y="216" text-anchor="middle" font-family="Inter, Arial" font-size="21" font-weight="900" fill="#FFE8A0">GARANTIDO</text>
</svg>
