<svg width="1100" height="230" viewBox="0 0 1100 230" fill="none" xmlns="http://www.w3.org/2000/svg" role="img" aria-labelledby="title desc">
<title id="title">Orçamento que Fecha</title>
<desc id="desc">Logo do produto Orçamento que Fecha em 6 etapas</desc>
<defs>
  <linearGradient id="purple" x1="0" x2="1" y1="0" y2="1">
    <stop offset="0" stop-color="#B56CFF"/>
    <stop offset="0.52" stop-color="#7C3AED"/>
    <stop offset="1" stop-color="#4C1D95"/>
  </linearGradient>
  <linearGradient id="orange" x1="0" x2="1" y1="0" y2="1">
    <stop offset="0" stop-color="#FFB020"/>
    <stop offset="1" stop-color="#F26A1B"/>
  </linearGradient>
  <filter id="glow" x="-40%" y="-40%" width="180%" height="180%">
    <feDropShadow dx="0" dy="12" stdDeviation="14" flood-color="#7C3AED" flood-opacity=".26"/>
  </filter>
</defs>
<g filter="url(#glow)">
  <rect x="34" y="31" width="154" height="154" rx="38" fill="#140A2D" stroke="url(#purple)" stroke-width="6"/>
  <path d="M78 63H122L154 95V148H78V63Z" fill="white"/>
  <path d="M122 63V96H154" fill="#C4A3FF"/>
  <path d="M94 101L103 110L119 92" stroke="#2A0B56" stroke-width="7" stroke-linecap="round" stroke-linejoin="round"/>
  <path d="M94 124L103 133L119 115" stroke="#2A0B56" stroke-width="7" stroke-linecap="round" stroke-linejoin="round"/>
  <path d="M132 107H144" stroke="#9A5CFF" stroke-width="7" stroke-linecap="round"/>
  <path d="M132 130H146" stroke="#9A5CFF" stroke-width="7" stroke-linecap="round"/>
  <circle cx="156" cy="150" r="31" fill="url(#purple)" stroke="#140A2D" stroke-width="7"/>
  <path d="M140 149L152 161L173 134" stroke="white" stroke-width="8" stroke-linecap="round" stroke-linejoin="round"/>
</g>
<text x="225" y="100" font-family="Arial, Helvetica, sans-serif" font-weight="900" font-size="62" fill="#181322" letter-spacing="-2.3">ORÇAMENTO</text>
<text x="225" y="166" font-family="Arial, Helvetica, sans-serif" font-weight="900" font-size="69" fill="url(#purple)" letter-spacing="-2.7">QUE FECHA</text>
<rect x="765" y="88" width="210" height="66" rx="33" fill="#140A2D" stroke="url(#purple)" stroke-width="5"/>
<text x="801" y="133" font-family="Arial, Helvetica, sans-serif" font-weight="900" font-size="33" fill="#fff">6 ETAPAS</text>
<path d="M1030 84L1072 121L1030 158" stroke="url(#orange)" stroke-width="13" stroke-linecap="round" stroke-linejoin="round"/>
</svg>