<svg width="880" height="180" viewBox="0 0 880 180" fill="none" xmlns="http://www.w3.org/2000/svg" role="img" aria-labelledby="title desc">
<title id="title">Orçamento que Fecha</title>
<desc id="desc">Logo do produto Orçamento que Fecha</desc>
<defs>
  <linearGradient id="purple" x1="0" x2="1" y1="0" y2="1">
    <stop offset="0" stop-color="#B56CFF"/>
    <stop offset="0.52" stop-color="#7C3AED"/>
    <stop offset="1" stop-color="#4C1D95"/>
  </linearGradient>
  <linearGradient id="orange" x1="0" x2="1" y1="0" y2="1">
    <stop offset="0" stop-color="#FFB020"/>
    <stop offset="1" stop-color="#F26A1B"/>
  </linearGradient>
  <filter id="soft" x="-20%" y="-20%" width="140%" height="140%">
    <feDropShadow dx="0" dy="10" stdDeviation="12" flood-color="#4C1D95" flood-opacity=".22"/>
  </filter>
</defs>
<g filter="url(#soft)">
  <rect x="16" y="23" width="132" height="132" rx="32" fill="#140A2D" stroke="url(#purple)" stroke-width="5"/>
  <path d="M55 54H97L122 79V126H55V54Z" stroke="url(#purple)" stroke-width="8" stroke-linejoin="round"/>
  <path d="M97 54V80H122" stroke="url(#purple)" stroke-width="8" stroke-linejoin="round"/>
  <path d="M70 89H99" stroke="#B56CFF" stroke-width="8" stroke-linecap="round"/>
  <path d="M70 109H92" stroke="#B56CFF" stroke-width="8" stroke-linecap="round"/>
  <circle cx="116" cy="116" r="30" fill="#140A2D" stroke="url(#orange)" stroke-width="8"/>
  <path d="M101 116L112 127L132 102" stroke="#fff" stroke-width="8" stroke-linecap="round" stroke-linejoin="round"/>
</g>
<text x="178" y="78" font-family="Inter, Arial, sans-serif" font-weight="900" font-size="54" fill="#16121F" letter-spacing="-2">ORÇAMENTO</text>
<text x="178" y="136" font-family="Inter, Arial, sans-serif" font-weight="900" font-size="62" fill="url(#purple)" letter-spacing="-2.6">QUE FECHA</text>
<rect x="625" y="92" width="115" height="48" rx="24" fill="#140A2D" stroke="url(#purple)" stroke-width="3"/>
<text x="647" y="125" font-family="Inter, Arial, sans-serif" font-weight="900" font-size="24" fill="#fff">6 ETAPAS</text>
<path d="M765 112H848" stroke="url(#orange)" stroke-width="8" stroke-linecap="round"/>
<path d="M827 91L852 112L827 133" stroke="url(#orange)" stroke-width="8" stroke-linecap="round" stroke-linejoin="round"/>
</svg>
